<?xml version="1.0" standalone="no"?><!DOCTYPE svg PUBLIC "-//W3C//DTD SVG 1.1//EN" "http://www.w3.org/Graphics/SVG/1.1/DTD/svg11.dtd"><svg t="1659878928042" class="icon" viewBox="0 0 1024 1024" version="1.1" xmlns="http://www.w3.org/2000/svg" p-id="7828" xmlns:xlink="http://www.w3.org/1999/xlink" width="200" height="200"><defs><style type="text/css"></style></defs><path d="M921.6 81.92H103.936c-11.264 0-20.48 9.216-20.48 20.48v776.704c0 1.536 0 3.072-0.512 4.096-1.536 6.656-1.536 13.312 0 19.968 0.512 1.536 0.512 3.072 0.512 4.096v13.824c0 11.264 9.216 20.48 20.48 20.48H921.6c11.264 0 20.48-9.216 20.48-20.48V102.4c0-11.264-9.216-20.48-20.48-20.48z m-25.088 815.104c-1.024 1.536-2.56 4.096-6.656 4.096H130.56c-3.072 0-5.12-1.536-6.144-3.072v-4.096c0-3.584 1.024-6.656 2.56-9.728l212.48-393.728c2.048-3.584 5.12-4.096 6.656-4.096s4.608 0.512 6.656 4.096L504.832 773.12l6.144 11.264c7.168 13.312 25.6 14.336 34.304 2.56l7.68-10.24 123.904-168.96c2.048-2.56 4.608-3.072 6.144-3.072s4.096 0.512 6.144 3.072l206.848 281.6c2.56 3.072 1.536 6.144 0.512 7.68z m4.608-132.608v62.464L820.224 716.8 721.92 583.168l-4.608-6.144c-1.536-2.048-3.584-4.096-5.632-5.12-7.168-4.096-14.848-6.656-22.016-7.68h-1.024c-1.536 0-3.584-0.512-5.12-0.512-1.536 0-3.584 0-5.12 0.512h-1.536c-1.024 0-2.56 0.512-3.584 0.512-0.512 0-1.024 0.512-1.536 0.512-1.024 0.512-2.56 0.512-3.584 1.024-0.512 0-1.024 0.512-1.536 0.512-1.536 0.512-3.072 1.024-4.608 2.048-1.536 1.024-3.072 1.536-4.608 2.56-0.512 0.512-1.024 0.512-1.536 1.024-1.024 0.512-2.048 1.536-3.072 2.048-0.512 0.512-1.024 1.024-1.536 1.024l-2.56 2.56-1.024 1.024c-1.024 1.536-2.56 2.56-3.584 4.096l-93.184 126.976-18.944 26.112-143.36-265.728c-8.704-15.872-25.088-25.6-42.496-25.6-17.92 0-34.304 9.728-42.496 25.6l-178.688 331.776V143.36c0-11.264 9.216-20.48 20.48-20.48H880.64c11.264 0 20.48 9.216 20.48 20.48v621.056z" p-id="7829" fill="#2c2c2c"></path><path d="M748.032 225.28a51.2 51.2 0 1 0 102.4 0 51.2 51.2 0 1 0-102.4 0Z" p-id="7830" fill="#2c2c2c"></path></svg>